<?xml version="1.0" encoding="utf-8"?>
<!-- Generator: Adobe Illustrator 25.0.1, SVG Export Plug-In . SVG Version: 6.00 Build 0)  -->
<svg version="1.1" id="Layer_1" xmlns="http://www.w3.org/2000/svg" xmlns:xlink="http://www.w3.org/1999/xlink" x="0px" y="0px"
	 viewBox="0 0 1097.9 946.9" style="enable-background:new 0 0 1097.9 946.9;" xml:space="preserve">
<style type="text/css">
	.st0{fill:#DF9D9D;}
	.st1{opacity:0.9815;fill:#DF9D9D;}
	.st2{opacity:0.963;fill:#DF9D9D;}
	.st3{opacity:0.9446;fill:#DF9D9D;}
	.st4{opacity:0.9261;fill:#DF9D9D;}
	.st5{opacity:0.9076;fill:#DF9D9D;}
	.st6{opacity:0.8891;fill:#DF9D9D;}
	.st7{opacity:0.8707;fill:#DF9D9D;}
	.st8{opacity:0.8522;fill:#DF9D9D;}
	.st9{opacity:0.8337;fill:#DF9D9D;}
	.st10{opacity:0.8152;fill:#DF9D9D;}
	.st11{opacity:0.7967;fill:#DF9D9D;}
	.st12{opacity:0.7783;fill:#DF9D9D;}
	.st13{opacity:0.7598;fill:#DF9D9D;}
	.st14{opacity:0.7413;fill:#DF9D9D;}
	.st15{opacity:0.7228;fill:#DF9D9D;}
	.st16{opacity:0.7043;fill:#DF9D9D;}
	.st17{opacity:0.6859;fill:#DF9D9D;}
	.st18{opacity:0.6674;fill:#DF9D9D;}
	.st19{opacity:0.6489;fill:#DF9D9D;}
	.st20{opacity:0.6304;fill:#DF9D9D;}
	.st21{opacity:0.612;fill:#DF9D9D;}
	.st22{opacity:0.5935;fill:#DF9D9D;}
	.st23{opacity:0.575;fill:#DF9D9D;}
	.st24{opacity:0.5565;fill:#DF9D9D;}
	.st25{opacity:0.538;fill:#DF9D9D;}
	.st26{opacity:0.5196;fill:#DF9D9D;}
	.st27{opacity:0.5011;fill:#DF9D9D;}
	.st28{opacity:0.4826;fill:#DF9D9D;}
	.st29{opacity:0.4641;fill:#DF9D9D;}
	.st30{opacity:0.4457;fill:#DF9D9D;}
	.st31{opacity:0.4272;fill:#DF9D9D;}
	.st32{opacity:0.4087;fill:#DF9D9D;}
	.st33{opacity:0.3902;fill:#DF9D9D;}
	.st34{opacity:0.3717;fill:#DF9D9D;}
	.st35{opacity:0.3533;fill:#DF9D9D;}
	.st36{opacity:0.3348;fill:#DF9D9D;}
	.st37{opacity:0.3163;fill:#DF9D9D;}
	.st38{opacity:0.2978;fill:#DF9D9D;}
	.st39{opacity:0.2793;fill:#DF9D9D;}
	.st40{opacity:0.2609;fill:#DF9D9D;}
</style>
<circle class="st0" cx="1077.3" cy="931.5" r="2.3"/>
<circle class="st1" cx="1054.7" cy="931.5" r="2.3"/>
<circle class="st2" cx="1032.2" cy="931.5" r="2.3"/>
<circle class="st3" cx="1009.6" cy="931.5" r="2.3"/>
<circle class="st4" cx="987" cy="931.5" r="2.3"/>
<circle class="st5" cx="964.4" cy="931.5" r="2.3"/>
<circle class="st6" cx="941.9" cy="931.5" r="2.3"/>
<circle class="st7" cx="919.3" cy="931.5" r="2.3"/>
<circle class="st8" cx="896.7" cy="931.5" r="2.3"/>
<circle class="st9" cx="874.1" cy="931.5" r="2.3"/>
<circle class="st10" cx="851.6" cy="931.5" r="2.3"/>
<circle class="st11" cx="829" cy="931.5" r="2.3"/>
<circle class="st12" cx="806.4" cy="931.5" r="2.3"/>
<circle class="st13" cx="783.8" cy="931.5" r="2.3"/>
<circle class="st14" cx="761.3" cy="931.5" r="2.3"/>
<circle class="st15" cx="738.7" cy="931.5" r="2.3"/>
<circle class="st16" cx="716.1" cy="931.5" r="2.3"/>
<circle class="st17" cx="693.5" cy="931.5" r="2.3"/>
<circle class="st18" cx="671" cy="931.5" r="2.3"/>
<circle class="st19" cx="648.4" cy="931.5" r="2.3"/>
<circle class="st20" cx="625.8" cy="931.5" r="2.3"/>
<circle class="st21" cx="603.2" cy="931.5" r="2.3"/>
<circle class="st22" cx="580.7" cy="931.5" r="2.3"/>
<circle class="st23" cx="558.1" cy="931.5" r="2.3"/>
<circle class="st24" cx="535.5" cy="931.5" r="2.3"/>
<circle class="st25" cx="512.9" cy="931.5" r="2.3"/>
<circle class="st26" cx="490.4" cy="931.5" r="2.3"/>
<circle class="st27" cx="467.8" cy="931.5" r="2.3"/>
<circle class="st28" cx="445.2" cy="931.5" r="2.3"/>
<circle class="st29" cx="422.6" cy="931.5" r="2.3"/>
<circle class="st30" cx="400.1" cy="931.5" r="2.3"/>
<circle class="st31" cx="377.5" cy="931.5" r="2.3"/>
<circle class="st32" cx="354.9" cy="931.5" r="2.3"/>
<circle class="st33" cx="332.3" cy="931.5" r="2.3"/>
<circle class="st34" cx="309.8" cy="931.5" r="2.3"/>
<circle class="st35" cx="287.2" cy="931.5" r="2.3"/>
<circle class="st36" cx="264.6" cy="931.5" r="2.3"/>
<circle class="st37" cx="242" cy="931.5" r="2.3"/>
<circle class="st38" cx="219.5" cy="931.5" r="2.3"/>
<circle class="st39" cx="196.9" cy="931.5" r="2.3"/>
<circle class="st40" cx="174.3" cy="931.5" r="2.3"/>
<circle class="st0" cx="1077.3" cy="908.6" r="2.3"/>
<circle class="st1" cx="1054.7" cy="908.6" r="2.3"/>
<circle class="st2" cx="1032.2" cy="908.6" r="2.3"/>
<circle class="st3" cx="1009.6" cy="908.6" r="2.3"/>
<circle class="st4" cx="987" cy="908.6" r="2.3"/>
<circle class="st5" cx="964.4" cy="908.6" r="2.3"/>
<circle class="st6" cx="941.9" cy="908.6" r="2.3"/>
<circle class="st7" cx="919.3" cy="908.6" r="2.3"/>
<circle class="st8" cx="896.7" cy="908.6" r="2.3"/>
<circle class="st9" cx="874.1" cy="908.6" r="2.3"/>
<circle class="st10" cx="851.6" cy="908.6" r="2.3"/>
<circle class="st11" cx="829" cy="908.6" r="2.3"/>
<circle class="st12" cx="806.4" cy="908.6" r="2.3"/>
<circle class="st13" cx="783.8" cy="908.6" r="2.3"/>
<circle class="st14" cx="761.3" cy="908.6" r="2.3"/>
<circle class="st15" cx="738.7" cy="908.6" r="2.3"/>
<circle class="st16" cx="716.1" cy="908.6" r="2.3"/>
<circle class="st17" cx="693.5" cy="908.6" r="2.3"/>
<circle class="st18" cx="671" cy="908.6" r="2.3"/>
<circle class="st19" cx="648.4" cy="908.6" r="2.3"/>
<circle class="st20" cx="625.8" cy="908.6" r="2.3"/>
<circle class="st21" cx="603.2" cy="908.6" r="2.3"/>
<circle class="st22" cx="580.7" cy="908.6" r="2.3"/>
<circle class="st23" cx="558.1" cy="908.6" r="2.3"/>
<circle class="st24" cx="535.5" cy="908.6" r="2.3"/>
<circle class="st25" cx="512.9" cy="908.6" r="2.3"/>
<circle class="st26" cx="490.4" cy="908.6" r="2.3"/>
<circle class="st27" cx="467.8" cy="908.6" r="2.3"/>
<circle class="st28" cx="445.2" cy="908.6" r="2.3"/>
<circle class="st29" cx="422.6" cy="908.6" r="2.3"/>
<circle class="st30" cx="400.1" cy="908.6" r="2.3"/>
<circle class="st31" cx="377.5" cy="908.6" r="2.3"/>
<circle class="st32" cx="354.9" cy="908.6" r="2.3"/>
<circle class="st33" cx="332.3" cy="908.6" r="2.3"/>
<circle class="st34" cx="309.8" cy="908.6" r="2.3"/>
<circle class="st35" cx="287.2" cy="908.6" r="2.3"/>
<circle class="st36" cx="264.6" cy="908.6" r="2.3"/>
<circle class="st37" cx="242" cy="908.6" r="2.3"/>
<circle class="st38" cx="219.5" cy="908.6" r="2.3"/>
<circle class="st39" cx="196.9" cy="908.6" r="2.3"/>
<circle class="st0" cx="1077.3" cy="885.7" r="2.3"/>
<circle class="st1" cx="1054.7" cy="885.7" r="2.3"/>
<circle class="st2" cx="1032.2" cy="885.7" r="2.3"/>
<circle class="st3" cx="1009.6" cy="885.7" r="2.3"/>
<circle class="st4" cx="987" cy="885.7" r="2.3"/>
<circle class="st5" cx="964.4" cy="885.7" r="2.3"/>
<circle class="st6" cx="941.9" cy="885.7" r="2.3"/>
<circle class="st7" cx="919.3" cy="885.7" r="2.3"/>
<circle class="st8" cx="896.7" cy="885.7" r="2.3"/>
<circle class="st9" cx="874.1" cy="885.7" r="2.3"/>
<circle class="st10" cx="851.6" cy="885.7" r="2.3"/>
<circle class="st11" cx="829" cy="885.7" r="2.3"/>
<circle class="st12" cx="806.4" cy="885.7" r="2.3"/>
<circle class="st13" cx="783.8" cy="885.7" r="2.3"/>
<circle class="st14" cx="761.3" cy="885.7" r="2.3"/>
<circle class="st15" cx="738.7" cy="885.7" r="2.3"/>
<circle class="st16" cx="716.1" cy="885.7" r="2.3"/>
<circle class="st17" cx="693.5" cy="885.7" r="2.3"/>
<circle class="st18" cx="671" cy="885.7" r="2.3"/>
<circle class="st19" cx="648.4" cy="885.7" r="2.3"/>
<circle class="st20" cx="625.8" cy="885.7" r="2.3"/>
<circle class="st21" cx="603.2" cy="885.7" r="2.3"/>
<circle class="st22" cx="580.7" cy="885.7" r="2.3"/>
<circle class="st23" cx="558.1" cy="885.7" r="2.3"/>
<circle class="st24" cx="535.5" cy="885.7" r="2.3"/>
<circle class="st25" cx="512.9" cy="885.7" r="2.3"/>
<circle class="st26" cx="490.4" cy="885.7" r="2.3"/>
<circle class="st27" cx="467.8" cy="885.7" r="2.3"/>
<circle class="st28" cx="445.2" cy="885.7" r="2.3"/>
<circle class="st29" cx="422.6" cy="885.7" r="2.3"/>
<circle class="st30" cx="400.1" cy="885.7" r="2.3"/>
<circle class="st31" cx="377.5" cy="885.7" r="2.3"/>
<circle class="st32" cx="354.9" cy="885.7" r="2.3"/>
<circle class="st33" cx="332.3" cy="885.7" r="2.3"/>
<circle class="st34" cx="309.8" cy="885.7" r="2.3"/>
<circle class="st35" cx="287.2" cy="885.7" r="2.3"/>
<circle class="st36" cx="264.6" cy="885.7" r="2.3"/>
<circle class="st37" cx="242" cy="885.7" r="2.3"/>
<circle class="st38" cx="219.5" cy="885.7" r="2.3"/>
<circle class="st0" cx="1077.3" cy="862.7" r="2.3"/>
<circle class="st1" cx="1054.7" cy="862.7" r="2.3"/>
<circle class="st2" cx="1032.2" cy="862.7" r="2.3"/>
<circle class="st3" cx="1009.6" cy="862.7" r="2.3"/>
<circle class="st4" cx="987" cy="862.7" r="2.3"/>
<circle class="st5" cx="964.4" cy="862.7" r="2.3"/>
<circle class="st6" cx="941.9" cy="862.7" r="2.3"/>
<circle class="st7" cx="919.3" cy="862.7" r="2.3"/>
<circle class="st8" cx="896.7" cy="862.7" r="2.3"/>
<circle class="st9" cx="874.1" cy="862.7" r="2.3"/>
<circle class="st10" cx="851.6" cy="862.7" r="2.3"/>
<circle class="st11" cx="829" cy="862.7" r="2.3"/>
<circle class="st12" cx="806.4" cy="862.7" r="2.3"/>
<circle class="st13" cx="783.8" cy="862.7" r="2.3"/>
<circle class="st14" cx="761.3" cy="862.7" r="2.3"/>
<circle class="st15" cx="738.7" cy="862.7" r="2.3"/>
<circle class="st16" cx="716.1" cy="862.7" r="2.3"/>
<circle class="st17" cx="693.5" cy="862.7" r="2.3"/>
<circle class="st18" cx="671" cy="862.7" r="2.3"/>
<circle class="st19" cx="648.4" cy="862.7" r="2.3"/>
<circle class="st20" cx="625.8" cy="862.7" r="2.3"/>
<circle class="st21" cx="603.2" cy="862.7" r="2.3"/>
<circle class="st22" cx="580.7" cy="862.7" r="2.3"/>
<circle class="st23" cx="558.1" cy="862.7" r="2.3"/>
<circle class="st24" cx="535.5" cy="862.7" r="2.3"/>
<circle class="st25" cx="512.9" cy="862.7" r="2.3"/>
<circle class="st26" cx="490.4" cy="862.7" r="2.3"/>
<circle class="st27" cx="467.8" cy="862.7" r="2.3"/>
<circle class="st28" cx="445.2" cy="862.7" r="2.3"/>
<circle class="st29" cx="422.6" cy="862.7" r="2.3"/>
<circle class="st30" cx="400.1" cy="862.7" r="2.3"/>
<circle class="st31" cx="377.5" cy="862.7" r="2.3"/>
<circle class="st32" cx="354.9" cy="862.7" r="2.3"/>
<circle class="st33" cx="332.3" cy="862.7" r="2.3"/>
<circle class="st34" cx="309.8" cy="862.7" r="2.3"/>
<circle class="st35" cx="287.2" cy="862.7" r="2.3"/>
<circle class="st36" cx="264.6" cy="862.7" r="2.3"/>
<circle class="st37" cx="242" cy="862.7" r="2.3"/>
<circle class="st0" cx="1077.3" cy="839.8" r="2.3"/>
<circle class="st1" cx="1054.7" cy="839.8" r="2.3"/>
<circle class="st2" cx="1032.2" cy="839.8" r="2.3"/>
<circle class="st3" cx="1009.6" cy="839.8" r="2.3"/>
<circle class="st4" cx="987" cy="839.8" r="2.3"/>
<circle class="st5" cx="964.4" cy="839.8" r="2.3"/>
<circle class="st6" cx="941.9" cy="839.8" r="2.3"/>
<circle class="st7" cx="919.3" cy="839.8" r="2.3"/>
<circle class="st8" cx="896.7" cy="839.8" r="2.3"/>
<circle class="st9" cx="874.1" cy="839.8" r="2.3"/>
<circle class="st10" cx="851.6" cy="839.8" r="2.3"/>
<circle class="st11" cx="829" cy="839.8" r="2.3"/>
<circle class="st12" cx="806.4" cy="839.8" r="2.3"/>
<circle class="st13" cx="783.8" cy="839.8" r="2.3"/>
<circle class="st14" cx="761.3" cy="839.8" r="2.3"/>
<circle class="st15" cx="738.7" cy="839.8" r="2.3"/>
<circle class="st16" cx="716.1" cy="839.8" r="2.3"/>
<circle class="st17" cx="693.5" cy="839.8" r="2.3"/>
<circle class="st18" cx="671" cy="839.8" r="2.3"/>
<circle class="st19" cx="648.4" cy="839.8" r="2.3"/>
<circle class="st20" cx="625.8" cy="839.8" r="2.3"/>
<circle class="st21" cx="603.2" cy="839.8" r="2.3"/>
<circle class="st22" cx="580.7" cy="839.8" r="2.3"/>
<circle class="st23" cx="558.1" cy="839.8" r="2.3"/>
<circle class="st24" cx="535.5" cy="839.8" r="2.3"/>
<circle class="st25" cx="512.9" cy="839.8" r="2.3"/>
<circle class="st26" cx="490.4" cy="839.8" r="2.3"/>
<circle class="st27" cx="467.8" cy="839.8" r="2.3"/>
<circle class="st28" cx="445.2" cy="839.8" r="2.3"/>
<circle class="st29" cx="422.6" cy="839.8" r="2.3"/>
<circle class="st30" cx="400.1" cy="839.8" r="2.3"/>
<circle class="st31" cx="377.5" cy="839.8" r="2.3"/>
<circle class="st32" cx="354.9" cy="839.8" r="2.3"/>
<circle class="st33" cx="332.3" cy="839.8" r="2.3"/>
<circle class="st34" cx="309.8" cy="839.8" r="2.3"/>
<circle class="st35" cx="287.2" cy="839.8" r="2.3"/>
<circle class="st36" cx="264.6" cy="839.8" r="2.3"/>
<circle class="st0" cx="1077.3" cy="816.9" r="2.3"/>
<circle class="st1" cx="1054.7" cy="816.9" r="2.3"/>
<circle class="st2" cx="1032.2" cy="816.9" r="2.3"/>
<circle class="st3" cx="1009.6" cy="816.9" r="2.3"/>
<circle class="st4" cx="987" cy="816.9" r="2.3"/>
<circle class="st5" cx="964.4" cy="816.9" r="2.3"/>
<circle class="st6" cx="941.9" cy="816.9" r="2.3"/>
<circle class="st7" cx="919.3" cy="816.9" r="2.3"/>
<circle class="st8" cx="896.7" cy="816.9" r="2.3"/>
<circle class="st9" cx="874.1" cy="816.9" r="2.3"/>
<circle class="st10" cx="851.6" cy="816.9" r="2.3"/>
<circle class="st11" cx="829" cy="816.9" r="2.3"/>
<circle class="st12" cx="806.4" cy="816.9" r="2.3"/>
<circle class="st13" cx="783.8" cy="816.9" r="2.3"/>
<circle class="st14" cx="761.3" cy="816.9" r="2.3"/>
<circle class="st15" cx="738.7" cy="816.9" r="2.3"/>
<circle class="st16" cx="716.1" cy="816.9" r="2.3"/>
<circle class="st17" cx="693.5" cy="816.9" r="2.3"/>
<circle class="st18" cx="671" cy="816.9" r="2.3"/>
<circle class="st19" cx="648.4" cy="816.9" r="2.3"/>
<circle class="st20" cx="625.8" cy="816.9" r="2.3"/>
<circle class="st21" cx="603.2" cy="816.9" r="2.3"/>
<circle class="st22" cx="580.7" cy="816.9" r="2.3"/>
<circle class="st23" cx="558.1" cy="816.9" r="2.3"/>
<circle class="st24" cx="535.5" cy="816.9" r="2.3"/>
<circle class="st25" cx="512.9" cy="816.9" r="2.3"/>
<circle class="st26" cx="490.4" cy="816.9" r="2.3"/>
<circle class="st27" cx="467.8" cy="816.9" r="2.3"/>
<circle class="st28" cx="445.2" cy="816.9" r="2.3"/>
<circle class="st29" cx="422.6" cy="816.9" r="2.3"/>
<circle class="st30" cx="400.1" cy="816.9" r="2.3"/>
<circle class="st31" cx="377.5" cy="816.9" r="2.3"/>
<circle class="st32" cx="354.9" cy="816.9" r="2.3"/>
<circle class="st33" cx="332.3" cy="816.9" r="2.3"/>
<circle class="st34" cx="309.8" cy="816.9" r="2.3"/>
<circle class="st35" cx="287.2" cy="816.9" r="2.3"/>
<circle class="st0" cx="1077.3" cy="794" r="2.3"/>
<circle class="st1" cx="1054.7" cy="794" r="2.3"/>
<circle class="st2" cx="1032.2" cy="794" r="2.3"/>
<circle class="st3" cx="1009.6" cy="794" r="2.3"/>
<circle class="st4" cx="987" cy="794" r="2.3"/>
<circle class="st5" cx="964.4" cy="794" r="2.3"/>
<circle class="st6" cx="941.9" cy="794" r="2.3"/>
<circle class="st7" cx="919.3" cy="794" r="2.3"/>
<circle class="st8" cx="896.7" cy="794" r="2.3"/>
<circle class="st9" cx="874.1" cy="794" r="2.3"/>
<circle class="st10" cx="851.6" cy="794" r="2.3"/>
<circle class="st11" cx="829" cy="794" r="2.3"/>
<circle class="st12" cx="806.4" cy="794" r="2.3"/>
<circle class="st13" cx="783.8" cy="794" r="2.3"/>
<circle class="st14" cx="761.3" cy="794" r="2.3"/>
<circle class="st15" cx="738.7" cy="794" r="2.3"/>
<circle class="st16" cx="716.1" cy="794" r="2.3"/>
<circle class="st17" cx="693.5" cy="794" r="2.3"/>
<circle class="st18" cx="671" cy="794" r="2.3"/>
<circle class="st19" cx="648.4" cy="794" r="2.3"/>
<circle class="st20" cx="625.8" cy="794" r="2.3"/>
<circle class="st21" cx="603.2" cy="794" r="2.3"/>
<circle class="st22" cx="580.7" cy="794" r="2.3"/>
<circle class="st23" cx="558.1" cy="794" r="2.3"/>
<circle class="st24" cx="535.5" cy="794" r="2.3"/>
<circle class="st25" cx="512.9" cy="794" r="2.3"/>
<circle class="st26" cx="490.4" cy="794" r="2.3"/>
<circle class="st27" cx="467.8" cy="794" r="2.3"/>
<circle class="st28" cx="445.2" cy="794" r="2.3"/>
<circle class="st29" cx="422.6" cy="794" r="2.3"/>
<circle class="st30" cx="400.1" cy="794" r="2.3"/>
<circle class="st31" cx="377.5" cy="794" r="2.3"/>
<circle class="st32" cx="354.9" cy="794" r="2.3"/>
<circle class="st33" cx="332.3" cy="794" r="2.3"/>
<circle class="st34" cx="309.8" cy="794" r="2.3"/>
<circle class="st0" cx="1077.3" cy="771.1" r="2.3"/>
<circle class="st1" cx="1054.7" cy="771.1" r="2.3"/>
<circle class="st2" cx="1032.2" cy="771.1" r="2.3"/>
<circle class="st3" cx="1009.6" cy="771.1" r="2.3"/>
<circle class="st4" cx="987" cy="771.1" r="2.3"/>
<circle class="st5" cx="964.4" cy="771.1" r="2.3"/>
<circle class="st6" cx="941.9" cy="771.1" r="2.3"/>
<circle class="st7" cx="919.3" cy="771.1" r="2.3"/>
<circle class="st8" cx="896.7" cy="771.1" r="2.3"/>
<circle class="st9" cx="874.1" cy="771.1" r="2.3"/>
<circle class="st10" cx="851.6" cy="771.1" r="2.3"/>
<circle class="st11" cx="829" cy="771.1" r="2.3"/>
<circle class="st12" cx="806.4" cy="771.1" r="2.3"/>
<circle class="st13" cx="783.8" cy="771.1" r="2.3"/>
<circle class="st14" cx="761.3" cy="771.1" r="2.3"/>
<circle class="st15" cx="738.7" cy="771.1" r="2.3"/>
<circle class="st16" cx="716.1" cy="771.1" r="2.3"/>
<circle class="st17" cx="693.5" cy="771.1" r="2.3"/>
<circle class="st18" cx="671" cy="771.1" r="2.3"/>
<circle class="st19" cx="648.4" cy="771.1" r="2.3"/>
<circle class="st20" cx="625.8" cy="771.1" r="2.3"/>
<circle class="st21" cx="603.2" cy="771.1" r="2.3"/>
<circle class="st22" cx="580.7" cy="771.1" r="2.3"/>
<circle class="st23" cx="558.1" cy="771.1" r="2.3"/>
<circle class="st24" cx="535.5" cy="771.1" r="2.3"/>
<circle class="st25" cx="512.9" cy="771.1" r="2.3"/>
<circle class="st26" cx="490.4" cy="771.1" r="2.3"/>
<circle class="st27" cx="467.8" cy="771.1" r="2.3"/>
<circle class="st28" cx="445.2" cy="771.1" r="2.3"/>
<circle class="st29" cx="422.6" cy="771.1" r="2.3"/>
<circle class="st30" cx="400.1" cy="771.1" r="2.3"/>
<circle class="st31" cx="377.5" cy="771.1" r="2.3"/>
<circle class="st32" cx="354.9" cy="771.1" r="2.3"/>
<circle class="st33" cx="332.3" cy="771.1" r="2.3"/>
<circle class="st0" cx="1077.3" cy="748.2" r="2.3"/>
<circle class="st1" cx="1054.7" cy="748.2" r="2.3"/>
<circle class="st2" cx="1032.2" cy="748.2" r="2.3"/>
<circle class="st3" cx="1009.6" cy="748.2" r="2.3"/>
<circle class="st4" cx="987" cy="748.2" r="2.3"/>
<circle class="st5" cx="964.4" cy="748.2" r="2.3"/>
<circle class="st6" cx="941.9" cy="748.2" r="2.3"/>
<circle class="st7" cx="919.3" cy="748.2" r="2.3"/>
<circle class="st8" cx="896.7" cy="748.2" r="2.3"/>
<circle class="st9" cx="874.1" cy="748.2" r="2.3"/>
<circle class="st10" cx="851.6" cy="748.2" r="2.3"/>
<circle class="st11" cx="829" cy="748.2" r="2.3"/>
<circle class="st12" cx="806.4" cy="748.2" r="2.3"/>
<circle class="st13" cx="783.8" cy="748.2" r="2.3"/>
<circle class="st14" cx="761.3" cy="748.2" r="2.3"/>
<circle class="st15" cx="738.7" cy="748.2" r="2.3"/>
<circle class="st16" cx="716.1" cy="748.2" r="2.3"/>
<circle class="st17" cx="693.5" cy="748.2" r="2.3"/>
<circle class="st18" cx="671" cy="748.2" r="2.3"/>
<circle class="st19" cx="648.4" cy="748.2" r="2.3"/>
<circle class="st20" cx="625.8" cy="748.2" r="2.3"/>
<circle class="st21" cx="603.2" cy="748.2" r="2.3"/>
<circle class="st22" cx="580.7" cy="748.2" r="2.3"/>
<circle class="st23" cx="558.1" cy="748.2" r="2.3"/>
<circle class="st24" cx="535.5" cy="748.2" r="2.3"/>
<circle class="st25" cx="512.9" cy="748.2" r="2.3"/>
<circle class="st26" cx="490.4" cy="748.2" r="2.3"/>
<circle class="st27" cx="467.8" cy="748.2" r="2.3"/>
<circle class="st28" cx="445.2" cy="748.2" r="2.3"/>
<circle class="st29" cx="422.6" cy="748.2" r="2.3"/>
<circle class="st30" cx="400.1" cy="748.2" r="2.3"/>
<circle class="st31" cx="377.5" cy="748.2" r="2.3"/>
<circle class="st32" cx="354.9" cy="748.2" r="2.3"/>
<circle class="st0" cx="1077.3" cy="725.2" r="2.3"/>
<circle class="st1" cx="1054.7" cy="725.2" r="2.3"/>
<circle class="st2" cx="1032.2" cy="725.2" r="2.3"/>
<circle class="st3" cx="1009.6" cy="725.2" r="2.3"/>
<circle class="st4" cx="987" cy="725.2" r="2.3"/>
<circle class="st5" cx="964.4" cy="725.2" r="2.3"/>
<circle class="st6" cx="941.9" cy="725.2" r="2.3"/>
<circle class="st7" cx="919.3" cy="725.2" r="2.3"/>
<circle class="st8" cx="896.7" cy="725.2" r="2.3"/>
<circle class="st9" cx="874.1" cy="725.2" r="2.3"/>
<circle class="st10" cx="851.6" cy="725.2" r="2.3"/>
<circle class="st11" cx="829" cy="725.2" r="2.3"/>
<circle class="st12" cx="806.4" cy="725.2" r="2.3"/>
<circle class="st13" cx="783.8" cy="725.2" r="2.3"/>
<circle class="st14" cx="761.3" cy="725.2" r="2.3"/>
<circle class="st15" cx="738.7" cy="725.2" r="2.3"/>
<circle class="st16" cx="716.1" cy="725.2" r="2.3"/>
<circle class="st17" cx="693.5" cy="725.2" r="2.3"/>
<circle class="st18" cx="671" cy="725.2" r="2.3"/>
<circle class="st19" cx="648.4" cy="725.2" r="2.3"/>
<circle class="st20" cx="625.8" cy="725.2" r="2.3"/>
<circle class="st21" cx="603.2" cy="725.2" r="2.3"/>
<circle class="st22" cx="580.7" cy="725.2" r="2.3"/>
<circle class="st23" cx="558.1" cy="725.2" r="2.3"/>
<circle class="st24" cx="535.5" cy="725.2" r="2.3"/>
<circle class="st25" cx="512.9" cy="725.2" r="2.3"/>
<circle class="st26" cx="490.4" cy="725.2" r="2.3"/>
<circle class="st27" cx="467.8" cy="725.2" r="2.3"/>
<circle class="st28" cx="445.2" cy="725.2" r="2.3"/>
<circle class="st29" cx="422.6" cy="725.2" r="2.3"/>
<circle class="st30" cx="400.1" cy="725.2" r="2.3"/>
<circle class="st31" cx="377.5" cy="725.2" r="2.3"/>
<circle class="st0" cx="1077.3" cy="702.3" r="2.3"/>
<circle class="st1" cx="1054.7" cy="702.3" r="2.3"/>
<circle class="st2" cx="1032.2" cy="702.3" r="2.3"/>
<circle class="st3" cx="1009.6" cy="702.3" r="2.3"/>
<circle class="st4" cx="987" cy="702.3" r="2.3"/>
<circle class="st5" cx="964.4" cy="702.3" r="2.3"/>
<circle class="st6" cx="941.9" cy="702.3" r="2.3"/>
<circle class="st7" cx="919.3" cy="702.3" r="2.3"/>
<circle class="st8" cx="896.7" cy="702.3" r="2.3"/>
<circle class="st9" cx="874.1" cy="702.3" r="2.3"/>
<circle class="st10" cx="851.6" cy="702.3" r="2.3"/>
<circle class="st11" cx="829" cy="702.3" r="2.3"/>
<circle class="st12" cx="806.4" cy="702.3" r="2.3"/>
<circle class="st13" cx="783.8" cy="702.3" r="2.3"/>
<circle class="st14" cx="761.3" cy="702.3" r="2.3"/>
<circle class="st15" cx="738.7" cy="702.3" r="2.3"/>
<circle class="st16" cx="716.1" cy="702.3" r="2.3"/>
<circle class="st17" cx="693.5" cy="702.3" r="2.3"/>
<circle class="st18" cx="671" cy="702.3" r="2.3"/>
<circle class="st19" cx="648.4" cy="702.3" r="2.3"/>
<circle class="st20" cx="625.8" cy="702.3" r="2.3"/>
<circle class="st21" cx="603.2" cy="702.3" r="2.3"/>
<circle class="st22" cx="580.7" cy="702.3" r="2.3"/>
<circle class="st23" cx="558.1" cy="702.3" r="2.3"/>
<circle class="st24" cx="535.5" cy="702.3" r="2.3"/>
<circle class="st25" cx="512.9" cy="702.3" r="2.3"/>
<circle class="st26" cx="490.4" cy="702.3" r="2.3"/>
<circle class="st27" cx="467.8" cy="702.3" r="2.3"/>
<circle class="st28" cx="445.2" cy="702.3" r="2.3"/>
<circle class="st29" cx="422.6" cy="702.3" r="2.3"/>
<circle class="st30" cx="400.1" cy="702.3" r="2.3"/>
<circle class="st0" cx="1077.3" cy="679.4" r="2.3"/>
<circle class="st1" cx="1054.7" cy="679.4" r="2.3"/>
<circle class="st2" cx="1032.2" cy="679.4" r="2.3"/>
<circle class="st3" cx="1009.6" cy="679.4" r="2.3"/>
<circle class="st4" cx="987" cy="679.4" r="2.3"/>
<circle class="st5" cx="964.4" cy="679.4" r="2.3"/>
<circle class="st6" cx="941.9" cy="679.4" r="2.3"/>
<circle class="st7" cx="919.3" cy="679.4" r="2.3"/>
<circle class="st8" cx="896.7" cy="679.4" r="2.3"/>
<circle class="st9" cx="874.1" cy="679.4" r="2.3"/>
<circle class="st10" cx="851.6" cy="679.4" r="2.3"/>
<circle class="st11" cx="829" cy="679.4" r="2.3"/>
<circle class="st12" cx="806.4" cy="679.4" r="2.3"/>
<circle class="st13" cx="783.8" cy="679.4" r="2.3"/>
<circle class="st14" cx="761.3" cy="679.4" r="2.3"/>
<circle class="st15" cx="738.7" cy="679.4" r="2.3"/>
<circle class="st16" cx="716.1" cy="679.4" r="2.3"/>
<circle class="st17" cx="693.5" cy="679.4" r="2.3"/>
<circle class="st18" cx="671" cy="679.4" r="2.3"/>
<circle class="st19" cx="648.4" cy="679.4" r="2.3"/>
<circle class="st20" cx="625.8" cy="679.4" r="2.3"/>
<circle class="st21" cx="603.2" cy="679.4" r="2.3"/>
<circle class="st22" cx="580.7" cy="679.4" r="2.3"/>
<circle class="st23" cx="558.1" cy="679.4" r="2.3"/>
<circle class="st24" cx="535.5" cy="679.4" r="2.3"/>
<circle class="st25" cx="512.9" cy="679.4" r="2.3"/>
<circle class="st26" cx="490.4" cy="679.4" r="2.3"/>
<circle class="st27" cx="467.8" cy="679.4" r="2.3"/>
<circle class="st28" cx="445.2" cy="679.4" r="2.3"/>
<circle class="st29" cx="422.6" cy="679.4" r="2.3"/>
<circle class="st0" cx="1077.3" cy="656.5" r="2.3"/>
<circle class="st1" cx="1054.7" cy="656.5" r="2.3"/>
<circle class="st2" cx="1032.2" cy="656.5" r="2.3"/>
<circle class="st3" cx="1009.6" cy="656.5" r="2.3"/>
<circle class="st4" cx="987" cy="656.5" r="2.3"/>
<circle class="st5" cx="964.4" cy="656.5" r="2.3"/>
<circle class="st6" cx="941.9" cy="656.5" r="2.3"/>
<circle class="st7" cx="919.3" cy="656.5" r="2.3"/>
<circle class="st8" cx="896.7" cy="656.5" r="2.3"/>
<circle class="st9" cx="874.1" cy="656.5" r="2.3"/>
<circle class="st10" cx="851.6" cy="656.5" r="2.3"/>
<circle class="st11" cx="829" cy="656.5" r="2.3"/>
<circle class="st12" cx="806.4" cy="656.5" r="2.3"/>
<circle class="st13" cx="783.8" cy="656.5" r="2.3"/>
<circle class="st14" cx="761.3" cy="656.5" r="2.3"/>
<circle class="st15" cx="738.7" cy="656.5" r="2.3"/>
<circle class="st16" cx="716.1" cy="656.5" r="2.3"/>
<circle class="st17" cx="693.5" cy="656.5" r="2.3"/>
<circle class="st18" cx="671" cy="656.5" r="2.3"/>
<circle class="st19" cx="648.4" cy="656.5" r="2.3"/>
<circle class="st20" cx="625.8" cy="656.5" r="2.3"/>
<circle class="st21" cx="603.2" cy="656.5" r="2.3"/>
<circle class="st22" cx="580.7" cy="656.5" r="2.3"/>
<circle class="st23" cx="558.1" cy="656.5" r="2.3"/>
<circle class="st24" cx="535.5" cy="656.5" r="2.3"/>
<circle class="st25" cx="512.9" cy="656.5" r="2.3"/>
<circle class="st26" cx="490.4" cy="656.5" r="2.3"/>
<circle class="st27" cx="467.8" cy="656.5" r="2.3"/>
<circle class="st28" cx="445.2" cy="656.5" r="2.3"/>
<circle class="st0" cx="1077.3" cy="633.6" r="2.3"/>
<circle class="st1" cx="1054.7" cy="633.6" r="2.3"/>
<circle class="st2" cx="1032.2" cy="633.6" r="2.3"/>
<circle class="st3" cx="1009.6" cy="633.6" r="2.3"/>
<circle class="st4" cx="987" cy="633.6" r="2.3"/>
<circle class="st5" cx="964.4" cy="633.6" r="2.3"/>
<circle class="st6" cx="941.9" cy="633.6" r="2.3"/>
<circle class="st7" cx="919.3" cy="633.6" r="2.3"/>
<circle class="st8" cx="896.7" cy="633.6" r="2.3"/>
<circle class="st9" cx="874.1" cy="633.6" r="2.3"/>
<circle class="st10" cx="851.6" cy="633.6" r="2.3"/>
<circle class="st11" cx="829" cy="633.6" r="2.3"/>
<circle class="st12" cx="806.4" cy="633.6" r="2.3"/>
<circle class="st13" cx="783.8" cy="633.6" r="2.3"/>
<circle class="st14" cx="761.3" cy="633.6" r="2.3"/>
<circle class="st15" cx="738.7" cy="633.6" r="2.3"/>
<circle class="st16" cx="716.1" cy="633.6" r="2.3"/>
<circle class="st17" cx="693.5" cy="633.6" r="2.3"/>
<circle class="st18" cx="671" cy="633.6" r="2.3"/>
<circle class="st19" cx="648.4" cy="633.6" r="2.3"/>
<circle class="st20" cx="625.8" cy="633.6" r="2.3"/>
<circle class="st21" cx="603.2" cy="633.6" r="2.3"/>
<circle class="st22" cx="580.7" cy="633.6" r="2.3"/>
<circle class="st23" cx="558.1" cy="633.6" r="2.3"/>
<circle class="st24" cx="535.5" cy="633.6" r="2.3"/>
<circle class="st25" cx="512.9" cy="633.6" r="2.3"/>
<circle class="st26" cx="490.4" cy="633.6" r="2.3"/>
<circle class="st27" cx="467.8" cy="633.6" r="2.3"/>
<circle class="st0" cx="1077.3" cy="610.6" r="2.3"/>
<circle class="st1" cx="1054.7" cy="610.6" r="2.3"/>
<circle class="st2" cx="1032.2" cy="610.6" r="2.3"/>
<circle class="st3" cx="1009.6" cy="610.6" r="2.3"/>
<circle class="st4" cx="987" cy="610.6" r="2.3"/>
<circle class="st5" cx="964.4" cy="610.6" r="2.3"/>
<circle class="st6" cx="941.9" cy="610.6" r="2.3"/>
<circle class="st7" cx="919.3" cy="610.6" r="2.3"/>
<circle class="st8" cx="896.7" cy="610.6" r="2.3"/>
<circle class="st9" cx="874.1" cy="610.6" r="2.3"/>
<circle class="st10" cx="851.6" cy="610.6" r="2.3"/>
<circle class="st11" cx="829" cy="610.6" r="2.3"/>
<circle class="st12" cx="806.4" cy="610.6" r="2.3"/>
<circle class="st13" cx="783.8" cy="610.6" r="2.3"/>
<circle class="st14" cx="761.3" cy="610.6" r="2.3"/>
<circle class="st15" cx="738.7" cy="610.6" r="2.3"/>
<circle class="st16" cx="716.1" cy="610.6" r="2.3"/>
<circle class="st17" cx="693.5" cy="610.6" r="2.3"/>
<circle class="st18" cx="671" cy="610.6" r="2.3"/>
<circle class="st19" cx="648.4" cy="610.6" r="2.3"/>
<circle class="st20" cx="625.8" cy="610.6" r="2.3"/>
<circle class="st21" cx="603.2" cy="610.6" r="2.3"/>
<circle class="st22" cx="580.7" cy="610.6" r="2.3"/>
<circle class="st23" cx="558.1" cy="610.6" r="2.3"/>
<circle class="st24" cx="535.5" cy="610.6" r="2.3"/>
<circle class="st25" cx="512.9" cy="610.6" r="2.3"/>
<circle class="st26" cx="490.4" cy="610.6" r="2.3"/>
<circle class="st0" cx="1077.3" cy="587.7" r="2.3"/>
<circle class="st1" cx="1054.7" cy="587.7" r="2.3"/>
<circle class="st2" cx="1032.2" cy="587.7" r="2.3"/>
<circle class="st3" cx="1009.6" cy="587.7" r="2.3"/>
<circle class="st4" cx="987" cy="587.7" r="2.3"/>
<circle class="st5" cx="964.4" cy="587.7" r="2.3"/>
<circle class="st6" cx="941.9" cy="587.7" r="2.3"/>
<circle class="st7" cx="919.3" cy="587.7" r="2.3"/>
<circle class="st8" cx="896.7" cy="587.7" r="2.3"/>
<circle class="st9" cx="874.1" cy="587.7" r="2.3"/>
<circle class="st10" cx="851.6" cy="587.7" r="2.3"/>
<circle class="st11" cx="829" cy="587.7" r="2.3"/>
<circle class="st12" cx="806.4" cy="587.7" r="2.3"/>
<circle class="st13" cx="783.8" cy="587.7" r="2.3"/>
<circle class="st14" cx="761.3" cy="587.7" r="2.3"/>
<circle class="st15" cx="738.7" cy="587.7" r="2.3"/>
<circle class="st16" cx="716.1" cy="587.7" r="2.3"/>
<circle class="st17" cx="693.5" cy="587.7" r="2.3"/>
<circle class="st18" cx="671" cy="587.7" r="2.3"/>
<circle class="st19" cx="648.4" cy="587.7" r="2.3"/>
<circle class="st20" cx="625.8" cy="587.7" r="2.3"/>
<circle class="st21" cx="603.2" cy="587.7" r="2.3"/>
<circle class="st22" cx="580.7" cy="587.7" r="2.3"/>
<circle class="st23" cx="558.1" cy="587.7" r="2.3"/>
<circle class="st24" cx="535.5" cy="587.7" r="2.3"/>
<circle class="st25" cx="512.9" cy="587.7" r="2.3"/>
<circle class="st0" cx="1077.3" cy="564.8" r="2.3"/>
<circle class="st1" cx="1054.7" cy="564.8" r="2.3"/>
<circle class="st2" cx="1032.2" cy="564.8" r="2.3"/>
<circle class="st3" cx="1009.6" cy="564.8" r="2.3"/>
<circle class="st4" cx="987" cy="564.8" r="2.3"/>
<circle class="st5" cx="964.4" cy="564.8" r="2.3"/>
<circle class="st6" cx="941.9" cy="564.8" r="2.3"/>
<circle class="st7" cx="919.3" cy="564.8" r="2.3"/>
<circle class="st8" cx="896.7" cy="564.8" r="2.3"/>
<circle class="st9" cx="874.1" cy="564.8" r="2.3"/>
<circle class="st10" cx="851.6" cy="564.8" r="2.3"/>
<circle class="st11" cx="829" cy="564.8" r="2.3"/>
<circle class="st12" cx="806.4" cy="564.8" r="2.3"/>
<circle class="st13" cx="783.8" cy="564.8" r="2.3"/>
<circle class="st14" cx="761.3" cy="564.8" r="2.3"/>
<circle class="st15" cx="738.7" cy="564.8" r="2.3"/>
<circle class="st16" cx="716.1" cy="564.8" r="2.3"/>
<circle class="st17" cx="693.5" cy="564.8" r="2.3"/>
<circle class="st18" cx="671" cy="564.8" r="2.3"/>
<circle class="st19" cx="648.4" cy="564.8" r="2.3"/>
<circle class="st20" cx="625.8" cy="564.8" r="2.3"/>
<circle class="st21" cx="603.2" cy="564.8" r="2.3"/>
<circle class="st22" cx="580.7" cy="564.8" r="2.3"/>
<circle class="st23" cx="558.1" cy="564.8" r="2.3"/>
<circle class="st24" cx="535.5" cy="564.8" r="2.3"/>
<circle class="st0" cx="1077.3" cy="541.9" r="2.3"/>
<circle class="st1" cx="1054.7" cy="541.9" r="2.3"/>
<circle class="st2" cx="1032.2" cy="541.9" r="2.3"/>
<circle class="st3" cx="1009.6" cy="541.9" r="2.3"/>
<circle class="st4" cx="987" cy="541.9" r="2.3"/>
<circle class="st5" cx="964.4" cy="541.9" r="2.3"/>
<circle class="st6" cx="941.9" cy="541.9" r="2.3"/>
<circle class="st7" cx="919.3" cy="541.9" r="2.3"/>
<circle class="st8" cx="896.7" cy="541.9" r="2.3"/>
<circle class="st9" cx="874.1" cy="541.9" r="2.3"/>
<circle class="st10" cx="851.6" cy="541.9" r="2.3"/>
<circle class="st11" cx="829" cy="541.9" r="2.3"/>
<circle class="st12" cx="806.4" cy="541.9" r="2.3"/>
<circle class="st13" cx="783.8" cy="541.9" r="2.3"/>
<circle class="st14" cx="761.3" cy="541.9" r="2.3"/>
<circle class="st15" cx="738.7" cy="541.9" r="2.3"/>
<circle class="st16" cx="716.1" cy="541.9" r="2.3"/>
<circle class="st17" cx="693.5" cy="541.9" r="2.3"/>
<circle class="st18" cx="671" cy="541.9" r="2.3"/>
<circle class="st19" cx="648.4" cy="541.9" r="2.3"/>
<circle class="st20" cx="625.8" cy="541.9" r="2.3"/>
<circle class="st21" cx="603.2" cy="541.9" r="2.3"/>
<circle class="st22" cx="580.7" cy="541.9" r="2.3"/>
<circle class="st23" cx="558.1" cy="541.9" r="2.3"/>
<circle class="st0" cx="1077.3" cy="519" r="2.3"/>
<circle class="st1" cx="1054.7" cy="519" r="2.3"/>
<circle class="st2" cx="1032.2" cy="519" r="2.3"/>
<circle class="st3" cx="1009.6" cy="519" r="2.3"/>
<circle class="st4" cx="987" cy="519" r="2.3"/>
<circle class="st5" cx="964.4" cy="519" r="2.3"/>
<circle class="st6" cx="941.9" cy="519" r="2.3"/>
<circle class="st7" cx="919.3" cy="519" r="2.3"/>
<circle class="st8" cx="896.7" cy="519" r="2.3"/>
<circle class="st9" cx="874.1" cy="519" r="2.3"/>
<circle class="st10" cx="851.6" cy="519" r="2.3"/>
<circle class="st11" cx="829" cy="519" r="2.3"/>
<circle class="st12" cx="806.4" cy="519" r="2.3"/>
<circle class="st13" cx="783.8" cy="519" r="2.3"/>
<circle class="st14" cx="761.3" cy="519" r="2.3"/>
<circle class="st15" cx="738.7" cy="519" r="2.3"/>
<circle class="st16" cx="716.1" cy="519" r="2.3"/>
<circle class="st17" cx="693.5" cy="519" r="2.3"/>
<circle class="st18" cx="671" cy="519" r="2.3"/>
<circle class="st19" cx="648.4" cy="519" r="2.3"/>
<circle class="st20" cx="625.8" cy="519" r="2.3"/>
<circle class="st21" cx="603.2" cy="519" r="2.3"/>
<circle class="st22" cx="580.7" cy="519" r="2.3"/>
<circle class="st0" cx="1077.3" cy="496.1" r="2.3"/>
<circle class="st1" cx="1054.7" cy="496.1" r="2.3"/>
<circle class="st2" cx="1032.2" cy="496.1" r="2.3"/>
<circle class="st3" cx="1009.6" cy="496.1" r="2.3"/>
<circle class="st4" cx="987" cy="496.1" r="2.3"/>
<circle class="st5" cx="964.4" cy="496.1" r="2.3"/>
<circle class="st6" cx="941.9" cy="496.1" r="2.3"/>
<circle class="st7" cx="919.3" cy="496.1" r="2.3"/>
<circle class="st8" cx="896.7" cy="496.1" r="2.3"/>
<circle class="st9" cx="874.1" cy="496.1" r="2.3"/>
<circle class="st10" cx="851.6" cy="496.1" r="2.3"/>
<circle class="st11" cx="829" cy="496.1" r="2.3"/>
<circle class="st12" cx="806.4" cy="496.1" r="2.3"/>
<circle class="st13" cx="783.8" cy="496.1" r="2.3"/>
<circle class="st14" cx="761.3" cy="496.1" r="2.3"/>
<circle class="st15" cx="738.7" cy="496.1" r="2.3"/>
<circle class="st16" cx="716.1" cy="496.1" r="2.3"/>
<circle class="st17" cx="693.5" cy="496.1" r="2.3"/>
<circle class="st18" cx="671" cy="496.1" r="2.3"/>
<circle class="st19" cx="648.4" cy="496.1" r="2.3"/>
<circle class="st20" cx="625.8" cy="496.1" r="2.3"/>
<circle class="st21" cx="603.2" cy="496.1" r="2.3"/>
<circle class="st0" cx="1077.3" cy="473.1" r="2.3"/>
<circle class="st1" cx="1054.7" cy="473.1" r="2.3"/>
<circle class="st2" cx="1032.2" cy="473.1" r="2.3"/>
<circle class="st3" cx="1009.6" cy="473.1" r="2.3"/>
<circle class="st4" cx="987" cy="473.1" r="2.3"/>
<circle class="st5" cx="964.4" cy="473.1" r="2.3"/>
<circle class="st6" cx="941.9" cy="473.1" r="2.3"/>
<circle class="st7" cx="919.3" cy="473.1" r="2.3"/>
<circle class="st8" cx="896.7" cy="473.1" r="2.3"/>
<circle class="st9" cx="874.1" cy="473.1" r="2.3"/>
<circle class="st10" cx="851.6" cy="473.1" r="2.3"/>
<circle class="st11" cx="829" cy="473.1" r="2.3"/>
<circle class="st12" cx="806.4" cy="473.1" r="2.3"/>
<circle class="st13" cx="783.8" cy="473.1" r="2.3"/>
<circle class="st14" cx="761.3" cy="473.1" r="2.3"/>
<circle class="st15" cx="738.7" cy="473.1" r="2.3"/>
<circle class="st16" cx="716.1" cy="473.1" r="2.3"/>
<circle class="st17" cx="693.5" cy="473.1" r="2.3"/>
<circle class="st18" cx="671" cy="473.1" r="2.3"/>
<circle class="st19" cx="648.4" cy="473.1" r="2.3"/>
<circle class="st20" cx="625.8" cy="473.1" r="2.3"/>
<circle class="st0" cx="1077.3" cy="450.2" r="2.3"/>
<circle class="st1" cx="1054.7" cy="450.2" r="2.3"/>
<circle class="st2" cx="1032.2" cy="450.2" r="2.3"/>
<circle class="st3" cx="1009.6" cy="450.2" r="2.3"/>
<circle class="st4" cx="987" cy="450.2" r="2.3"/>
<circle class="st5" cx="964.4" cy="450.2" r="2.3"/>
<circle class="st6" cx="941.9" cy="450.2" r="2.3"/>
<circle class="st7" cx="919.3" cy="450.2" r="2.3"/>
<circle class="st8" cx="896.7" cy="450.2" r="2.3"/>
<circle class="st9" cx="874.1" cy="450.2" r="2.3"/>
<circle class="st10" cx="851.6" cy="450.2" r="2.3"/>
<circle class="st11" cx="829" cy="450.2" r="2.3"/>
<circle class="st12" cx="806.4" cy="450.2" r="2.3"/>
<circle class="st13" cx="783.8" cy="450.2" r="2.3"/>
<circle class="st14" cx="761.3" cy="450.2" r="2.3"/>
<circle class="st15" cx="738.7" cy="450.2" r="2.3"/>
<circle class="st16" cx="716.1" cy="450.2" r="2.3"/>
<circle class="st17" cx="693.5" cy="450.2" r="2.3"/>
<circle class="st18" cx="671" cy="450.2" r="2.3"/>
<circle class="st19" cx="648.4" cy="450.2" r="2.3"/>
<circle class="st0" cx="1077.3" cy="427.3" r="2.3"/>
<circle class="st1" cx="1054.7" cy="427.3" r="2.3"/>
<circle class="st2" cx="1032.2" cy="427.3" r="2.3"/>
<circle class="st3" cx="1009.6" cy="427.3" r="2.3"/>
<circle class="st4" cx="987" cy="427.3" r="2.3"/>
<circle class="st5" cx="964.4" cy="427.3" r="2.3"/>
<circle class="st6" cx="941.9" cy="427.3" r="2.3"/>
<circle class="st7" cx="919.3" cy="427.3" r="2.3"/>
<circle class="st8" cx="896.7" cy="427.3" r="2.3"/>
<circle class="st9" cx="874.1" cy="427.3" r="2.3"/>
<circle class="st10" cx="851.6" cy="427.3" r="2.3"/>
<circle class="st11" cx="829" cy="427.3" r="2.3"/>
<circle class="st12" cx="806.4" cy="427.3" r="2.3"/>
<circle class="st13" cx="783.8" cy="427.3" r="2.3"/>
<circle class="st14" cx="761.3" cy="427.3" r="2.3"/>
<circle class="st15" cx="738.7" cy="427.3" r="2.3"/>
<circle class="st16" cx="716.1" cy="427.3" r="2.3"/>
<circle class="st17" cx="693.5" cy="427.3" r="2.3"/>
<circle class="st18" cx="671" cy="427.3" r="2.3"/>
<circle class="st0" cx="1077.3" cy="404.4" r="2.3"/>
<circle class="st1" cx="1054.7" cy="404.4" r="2.3"/>
<circle class="st2" cx="1032.2" cy="404.4" r="2.3"/>
<circle class="st3" cx="1009.6" cy="404.4" r="2.3"/>
<circle class="st4" cx="987" cy="404.4" r="2.3"/>
<circle class="st5" cx="964.4" cy="404.4" r="2.3"/>
<circle class="st6" cx="941.9" cy="404.4" r="2.3"/>
<circle class="st7" cx="919.3" cy="404.4" r="2.3"/>
<circle class="st8" cx="896.7" cy="404.4" r="2.3"/>
<circle class="st9" cx="874.1" cy="404.4" r="2.3"/>
<circle class="st10" cx="851.6" cy="404.4" r="2.3"/>
<circle class="st11" cx="829" cy="404.4" r="2.3"/>
<circle class="st12" cx="806.4" cy="404.4" r="2.3"/>
<circle class="st13" cx="783.8" cy="404.4" r="2.3"/>
<circle class="st14" cx="761.3" cy="404.4" r="2.3"/>
<circle class="st15" cx="738.7" cy="404.4" r="2.3"/>
<circle class="st16" cx="716.1" cy="404.4" r="2.3"/>
<circle class="st17" cx="693.5" cy="404.4" r="2.3"/>
<circle class="st0" cx="1077.3" cy="381.5" r="2.3"/>
<circle class="st1" cx="1054.7" cy="381.5" r="2.3"/>
<circle class="st2" cx="1032.2" cy="381.5" r="2.3"/>
<circle class="st3" cx="1009.6" cy="381.5" r="2.3"/>
<circle class="st4" cx="987" cy="381.5" r="2.3"/>
<circle class="st5" cx="964.4" cy="381.5" r="2.3"/>
<circle class="st6" cx="941.9" cy="381.5" r="2.3"/>
<circle class="st7" cx="919.3" cy="381.5" r="2.3"/>
<circle class="st8" cx="896.7" cy="381.5" r="2.3"/>
<circle class="st9" cx="874.1" cy="381.5" r="2.3"/>
<circle class="st10" cx="851.6" cy="381.5" r="2.3"/>
<circle class="st11" cx="829" cy="381.5" r="2.3"/>
<circle class="st12" cx="806.4" cy="381.5" r="2.3"/>
<circle class="st13" cx="783.8" cy="381.5" r="2.3"/>
<circle class="st14" cx="761.3" cy="381.5" r="2.3"/>
<circle class="st15" cx="738.7" cy="381.5" r="2.3"/>
<circle class="st16" cx="716.1" cy="381.5" r="2.3"/>
<circle class="st0" cx="1077.3" cy="358.5" r="2.3"/>
<circle class="st1" cx="1054.7" cy="358.5" r="2.3"/>
<circle class="st2" cx="1032.2" cy="358.5" r="2.3"/>
<circle class="st3" cx="1009.6" cy="358.5" r="2.3"/>
<circle class="st4" cx="987" cy="358.5" r="2.3"/>
<circle class="st5" cx="964.4" cy="358.5" r="2.3"/>
<circle class="st6" cx="941.9" cy="358.5" r="2.3"/>
<circle class="st7" cx="919.3" cy="358.5" r="2.3"/>
<circle class="st8" cx="896.7" cy="358.5" r="2.3"/>
<circle class="st9" cx="874.1" cy="358.5" r="2.3"/>
<circle class="st10" cx="851.6" cy="358.5" r="2.3"/>
<circle class="st11" cx="829" cy="358.5" r="2.3"/>
<circle class="st12" cx="806.4" cy="358.5" r="2.3"/>
<circle class="st13" cx="783.8" cy="358.5" r="2.3"/>
<circle class="st14" cx="761.3" cy="358.5" r="2.3"/>
<circle class="st15" cx="738.7" cy="358.5" r="2.3"/>
<circle class="st0" cx="1077.3" cy="335.6" r="2.3"/>
<circle class="st1" cx="1054.7" cy="335.6" r="2.3"/>
<circle class="st2" cx="1032.2" cy="335.6" r="2.3"/>
<circle class="st3" cx="1009.6" cy="335.6" r="2.3"/>
<circle class="st4" cx="987" cy="335.6" r="2.3"/>
<circle class="st5" cx="964.4" cy="335.6" r="2.3"/>
<circle class="st6" cx="941.9" cy="335.6" r="2.3"/>
<circle class="st7" cx="919.3" cy="335.6" r="2.3"/>
<circle class="st8" cx="896.7" cy="335.6" r="2.3"/>
<circle class="st9" cx="874.1" cy="335.6" r="2.3"/>
<circle class="st10" cx="851.6" cy="335.6" r="2.3"/>
<circle class="st11" cx="829" cy="335.6" r="2.3"/>
<circle class="st12" cx="806.4" cy="335.6" r="2.3"/>
<circle class="st13" cx="783.8" cy="335.6" r="2.3"/>
<circle class="st14" cx="761.3" cy="335.6" r="2.3"/>
<circle class="st0" cx="1077.3" cy="312.7" r="2.3"/>
<circle class="st1" cx="1054.7" cy="312.7" r="2.3"/>
<circle class="st2" cx="1032.2" cy="312.7" r="2.3"/>
<circle class="st3" cx="1009.6" cy="312.7" r="2.3"/>
<circle class="st4" cx="987" cy="312.7" r="2.3"/>
<circle class="st5" cx="964.4" cy="312.7" r="2.3"/>
<circle class="st6" cx="941.9" cy="312.7" r="2.3"/>
<circle class="st7" cx="919.3" cy="312.7" r="2.3"/>
<circle class="st8" cx="896.7" cy="312.7" r="2.3"/>
<circle class="st9" cx="874.1" cy="312.7" r="2.3"/>
<circle class="st10" cx="851.6" cy="312.7" r="2.3"/>
<circle class="st11" cx="829" cy="312.7" r="2.3"/>
<circle class="st12" cx="806.4" cy="312.7" r="2.3"/>
<circle class="st13" cx="783.8" cy="312.7" r="2.3"/>
<circle class="st0" cx="1077.3" cy="289.8" r="2.3"/>
<circle class="st1" cx="1054.7" cy="289.8" r="2.3"/>
<circle class="st2" cx="1032.2" cy="289.8" r="2.3"/>
<circle class="st3" cx="1009.6" cy="289.8" r="2.3"/>
<circle class="st4" cx="987" cy="289.8" r="2.3"/>
<circle class="st5" cx="964.4" cy="289.8" r="2.3"/>
<circle class="st6" cx="941.9" cy="289.8" r="2.3"/>
<circle class="st7" cx="919.3" cy="289.8" r="2.3"/>
<circle class="st8" cx="896.7" cy="289.8" r="2.3"/>
<circle class="st9" cx="874.1" cy="289.8" r="2.3"/>
<circle class="st10" cx="851.6" cy="289.8" r="2.3"/>
<circle class="st11" cx="829" cy="289.8" r="2.3"/>
<circle class="st12" cx="806.4" cy="289.8" r="2.3"/>
<circle class="st0" cx="1077.3" cy="266.9" r="2.3"/>
<circle class="st1" cx="1054.7" cy="266.9" r="2.3"/>
<circle class="st2" cx="1032.2" cy="266.9" r="2.3"/>
<circle class="st3" cx="1009.6" cy="266.9" r="2.3"/>
<circle class="st4" cx="987" cy="266.9" r="2.3"/>
<circle class="st5" cx="964.4" cy="266.9" r="2.3"/>
<circle class="st6" cx="941.9" cy="266.9" r="2.3"/>
<circle class="st7" cx="919.3" cy="266.9" r="2.3"/>
<circle class="st8" cx="896.7" cy="266.9" r="2.3"/>
<circle class="st9" cx="874.1" cy="266.9" r="2.3"/>
<circle class="st10" cx="851.6" cy="266.9" r="2.3"/>
<circle class="st11" cx="829" cy="266.9" r="2.3"/>
<circle class="st0" cx="1077.3" cy="244" r="2.3"/>
<circle class="st1" cx="1054.7" cy="244" r="2.3"/>
<circle class="st2" cx="1032.2" cy="244" r="2.3"/>
<circle class="st3" cx="1009.6" cy="244" r="2.3"/>
<circle class="st4" cx="987" cy="244" r="2.3"/>
<circle class="st5" cx="964.4" cy="244" r="2.3"/>
<circle class="st6" cx="941.9" cy="244" r="2.3"/>
<circle class="st7" cx="919.3" cy="244" r="2.3"/>
<circle class="st8" cx="896.7" cy="244" r="2.3"/>
<circle class="st9" cx="874.1" cy="244" r="2.3"/>
<circle class="st10" cx="851.6" cy="244" r="2.3"/>
<circle class="st0" cx="1077.3" cy="221" r="2.3"/>
<circle class="st1" cx="1054.7" cy="221" r="2.3"/>
<circle class="st2" cx="1032.2" cy="221" r="2.3"/>
<circle class="st3" cx="1009.6" cy="221" r="2.3"/>
<circle class="st4" cx="987" cy="221" r="2.3"/>
<circle class="st5" cx="964.4" cy="221" r="2.3"/>
<circle class="st6" cx="941.9" cy="221" r="2.3"/>
<circle class="st7" cx="919.3" cy="221" r="2.3"/>
<circle class="st8" cx="896.7" cy="221" r="2.3"/>
<circle class="st9" cx="874.1" cy="221" r="2.3"/>
<circle class="st0" cx="1077.3" cy="198.1" r="2.3"/>
<circle class="st1" cx="1054.7" cy="198.1" r="2.3"/>
<circle class="st2" cx="1032.2" cy="198.1" r="2.3"/>
<circle class="st3" cx="1009.6" cy="198.1" r="2.3"/>
<circle class="st4" cx="987" cy="198.1" r="2.3"/>
<circle class="st5" cx="964.4" cy="198.1" r="2.3"/>
<circle class="st6" cx="941.9" cy="198.1" r="2.3"/>
<circle class="st7" cx="919.3" cy="198.1" r="2.3"/>
<circle class="st8" cx="896.7" cy="198.1" r="2.3"/>
<circle class="st0" cx="1077.3" cy="175.2" r="2.3"/>
<circle class="st1" cx="1054.7" cy="175.2" r="2.3"/>
<circle class="st2" cx="1032.2" cy="175.2" r="2.3"/>
<circle class="st3" cx="1009.6" cy="175.2" r="2.3"/>
<circle class="st4" cx="987" cy="175.2" r="2.3"/>
<circle class="st5" cx="964.4" cy="175.2" r="2.3"/>
<circle class="st6" cx="941.9" cy="175.2" r="2.3"/>
<circle class="st7" cx="919.3" cy="175.2" r="2.3"/>
<circle class="st0" cx="1077.3" cy="152.3" r="2.3"/>
<circle class="st1" cx="1054.7" cy="152.3" r="2.3"/>
<circle class="st2" cx="1032.2" cy="152.3" r="2.3"/>
<circle class="st3" cx="1009.6" cy="152.3" r="2.3"/>
<circle class="st4" cx="987" cy="152.3" r="2.3"/>
<circle class="st5" cx="964.4" cy="152.3" r="2.3"/>
<circle class="st6" cx="941.9" cy="152.3" r="2.3"/>
<circle class="st0" cx="1077.3" cy="129.4" r="2.3"/>
<circle class="st1" cx="1054.7" cy="129.4" r="2.3"/>
<circle class="st2" cx="1032.2" cy="129.4" r="2.3"/>
<circle class="st3" cx="1009.6" cy="129.4" r="2.3"/>
<circle class="st4" cx="987" cy="129.4" r="2.3"/>
<circle class="st5" cx="964.4" cy="129.4" r="2.3"/>
<circle class="st0" cx="1077.3" cy="106.4" r="2.3"/>
<circle class="st1" cx="1054.7" cy="106.4" r="2.3"/>
<circle class="st2" cx="1032.2" cy="106.4" r="2.3"/>
<circle class="st3" cx="1009.6" cy="106.4" r="2.3"/>
<circle class="st4" cx="987" cy="106.4" r="2.3"/>
<circle class="st0" cx="1077.3" cy="83.5" r="2.3"/>
<circle class="st1" cx="1054.7" cy="83.5" r="2.3"/>
<circle class="st2" cx="1032.2" cy="83.5" r="2.3"/>
<circle class="st3" cx="1009.6" cy="83.5" r="2.3"/>
<circle class="st0" cx="1077.3" cy="60.6" r="2.3"/>
<circle class="st1" cx="1054.7" cy="60.6" r="2.3"/>
<circle class="st2" cx="1032.2" cy="60.6" r="2.3"/>
<circle class="st0" cx="1077.3" cy="37.7" r="2.3"/>
<circle class="st1" cx="1054.7" cy="37.7" r="2.3"/>
<circle class="st0" cx="1077.3" cy="14.8" r="2.3"/>
</svg>
